<svg width="32" height="33" viewBox="0 0 32 33" fill="none" xmlns="http://www.w3.org/2000/svg">
<path d="M32 16.5C32 25.3366 24.8366 32.5 16 32.5C7.16344 32.5 0 25.3366 0 16.5C0 7.66344 7.16344 0.5 16 0.5C24.8366 0.5 32 7.66344 32 16.5Z" fill="#81C860"/>
<path fill-rule="evenodd" clip-rule="evenodd" d="M25.9425 10.8793C26.8216 11.6978 26.8708 13.074 26.0523 13.9532L16.9198 23.7621C15.8407 24.9211 14.0155 24.9537 12.8958 23.834L8.12238 19.0606C7.27301 18.2112 7.27301 16.8341 8.12238 15.9847C8.97176 15.1354 10.3489 15.1354 11.1982 15.9847L14.8332 19.6197L22.8686 10.9891C23.6871 10.1099 25.0633 10.0608 25.9425 10.8793Z" fill="white"/>
</svg>
