<svg width="32" height="33" viewBox="0 0 32 33" fill="none" xmlns="http://www.w3.org/2000/svg">
<path d="M32 16.5C32 25.3366 24.8366 32.5 16 32.5C7.16344 32.5 0 25.3366 0 16.5C0 7.66344 7.16344 0.5 16 0.5C24.8366 0.5 32 7.66344 32 16.5Z" fill="#FC414D"/>
<path fill-rule="evenodd" clip-rule="evenodd" d="M18.1143 32.3616L9.12207 23.3693L22.8688 9.62256L31.8615 18.6152C30.9178 25.7602 25.2595 31.4183 18.1143 32.3616Z" fill="#FC414D"/>
<path fill-rule="evenodd" clip-rule="evenodd" d="M22.8764 9.62348C23.7258 10.4729 23.7258 11.85 22.8764 12.6993L12.1992 23.3766C11.3499 24.226 9.97274 24.226 9.12336 23.3766C8.27398 22.5272 8.27398 21.1501 9.12336 20.3007L19.8006 9.62348C20.65 8.77411 22.0271 8.77411 22.8764 9.62348Z" fill="white"/>
<path fill-rule="evenodd" clip-rule="evenodd" d="M9.12336 9.62344C9.97273 8.77406 11.3498 8.77406 12.1992 9.62344L22.8765 20.3007C23.7258 21.15 23.7258 22.5271 22.8765 23.3765C22.0271 24.2259 20.65 24.2259 19.8006 23.3765L9.12336 12.6993C8.27398 11.8499 8.27398 10.4728 9.12336 9.62344Z" fill="white"/>
</svg>
